<svg width="400" height="300" viewBox="0 0 400 300" fill="none" xmlns="http://www.w3.org/2000/svg">
<path d="M340.036 76.2133C344.524 71.726 344.524 64.4511 340.037 59.9638C335.549 55.4757 328.274 55.475 323.787 59.9638C319.298 64.4511 319.299 71.726 323.787 76.214C328.274 80.7014 335.549 80.7006 340.036 76.2133Z" fill="black"/>
<path d="M392.393 142.393C388.192 142.393 384.785 145.798 384.785 150.001C384.785 154.201 388.192 157.607 392.393 157.607C396.595 157.607 400.001 154.201 400.001 150.001C400.001 145.798 396.595 142.393 392.393 142.393Z" fill="black"/>
<path d="M387.775 113.233C391.771 111.934 393.958 107.643 392.659 103.647C391.361 99.651 387.069 97.4644 383.073 98.7629C379.076 100.06 376.891 104.353 378.189 108.348C379.488 112.345 383.778 114.532 387.775 113.233Z" fill="black"/>
<path d="M369.67 72.4588C373.069 69.9881 373.823 65.2316 371.353 61.8321C368.883 58.4325 364.126 57.679 360.726 60.1489C357.328 62.6182 356.573 67.3762 359.043 70.7757C361.513 74.1737 366.27 74.9287 369.67 72.4588Z" fill="black"/>
<path d="M329.225 40.957C332.624 43.427 337.382 42.6722 339.852 39.2743C342.322 35.8749 341.567 31.1162 338.169 28.6474C334.77 26.1774 330.012 26.9316 327.542 30.3301C325.072 33.7295 325.826 38.4869 329.225 40.957Z" fill="black"/>
<path d="M291.652 21.8115C295.648 23.1101 299.939 20.9231 301.237 16.9268C302.537 12.9318 300.35 8.64007 296.354 7.34151C292.357 6.04294 288.066 8.2296 286.767 12.226C285.469 16.2213 287.655 20.513 291.652 21.8115Z" fill="black"/>
<path d="M250 15.2148C254.202 15.2148 257.608 11.8089 257.608 7.60683C257.608 3.4059 254.202 0 250 0C245.799 0 242.392 3.4059 242.392 7.60683C242.392 11.8089 245.799 15.2148 250 15.2148Z" fill="black"/>
<path d="M208.35 21.8118C212.346 20.5133 214.533 16.2216 213.235 12.2263C211.936 8.2299 207.644 6.04324 203.648 7.3418C199.651 8.63932 197.466 12.9317 198.764 16.9271C200.063 20.9234 204.353 23.1104 208.35 21.8118Z" fill="black"/>
<path d="M213.151 64.4934C214.45 68.4887 218.743 70.676 222.737 69.3771C226.733 68.0796 228.92 63.7868 227.622 59.7912C226.324 55.7948 222.031 53.6074 218.036 54.9067C214.041 56.2049 211.854 60.4967 213.151 64.4934Z" fill="black"/>
<path d="M227.575 87.4506C223.579 88.7492 221.392 93.0409 222.69 97.0362C223.989 101.033 228.281 103.219 232.277 101.921C236.273 100.622 238.46 96.3314 237.161 92.3354C235.862 88.339 231.571 86.152 227.575 87.4506Z" fill="black"/>
<path d="M205.72 110.894C202.32 108.424 197.563 109.179 195.093 112.577C192.623 115.976 193.378 120.735 196.775 123.204C200.175 125.674 204.933 124.92 207.402 121.521C209.872 118.122 209.119 113.364 205.72 110.894Z" fill="black"/>
<path d="M198.799 151.999C198.799 147.797 195.393 144.39 191.19 144.39C186.99 144.39 183.583 147.797 183.583 151.999C183.583 156.2 186.99 159.607 191.19 159.607C195.393 159.607 198.799 156.2 198.799 151.999Z" fill="black"/>
<path d="M199.125 180.029C195.726 182.5 194.972 187.256 197.442 190.656C199.912 194.056 204.669 194.809 208.068 192.339C211.467 189.87 212.221 185.112 209.752 181.712C207.281 178.314 202.524 177.559 199.125 180.029Z" fill="black"/>
<path d="M231.376 213.784C235.373 215.082 239.663 212.895 240.963 208.899C242.261 204.904 240.075 200.612 236.078 199.314C232.082 198.015 227.79 200.202 226.492 204.198C225.193 208.193 227.38 212.485 231.376 213.784Z" fill="black"/>
<path d="M272.424 212.549C276.421 211.251 278.607 206.959 277.309 202.963C276.011 198.967 271.719 196.781 267.723 198.079C263.726 199.378 261.539 203.668 262.839 207.664C264.137 211.661 268.428 213.848 272.424 212.549Z" fill="black"/>
<path d="M292.598 178.478C290.128 181.878 290.883 186.635 294.281 189.105C297.68 191.575 302.438 190.821 304.907 187.422C307.377 184.023 306.624 179.265 303.224 176.795C299.825 174.325 295.068 175.08 292.598 178.478Z" fill="black"/>
<path d="M308.81 140.394C304.608 140.394 301.202 143.8 301.202 148.002C301.202 152.203 304.608 155.609 308.81 155.609C313.012 155.609 316.418 152.203 316.418 148.002C316.418 143.8 313.012 140.394 308.81 140.394Z" fill="black"/>
<path d="M302.559 109.344C300.088 105.945 295.332 105.191 291.932 107.661C288.533 110.131 287.779 114.888 290.249 118.288C292.718 121.686 297.476 122.441 300.876 119.971C304.274 117.501 305.029 112.744 302.559 109.344Z" fill="black"/>
<path d="M263.922 100.686C267.919 101.985 272.209 99.7976 273.509 95.8016C274.807 91.8063 272.621 87.5146 268.624 86.216C264.628 84.9175 260.336 87.1041 259.038 91.1005C257.739 95.0958 259.926 99.3875 263.922 100.686Z" fill="black"/>
<path d="M168.245 91.8564C165.776 95.2559 166.531 100.013 169.929 102.483C173.328 104.953 178.086 104.199 180.555 100.8C183.025 97.4005 182.272 92.6431 178.872 90.1732C175.473 87.7033 170.716 88.4575 168.245 91.8564Z" fill="black"/>
<path d="M149.683 151.015C149.683 155.216 153.089 158.623 157.292 158.623C161.492 158.623 164.899 155.216 164.899 151.015C164.899 146.813 161.492 143.406 157.292 143.406C153.089 143.406 149.683 146.813 149.683 151.015Z" fill="black"/>
<path d="M171.122 199.159C167.723 201.63 166.969 206.386 169.439 209.786C171.909 213.185 176.666 213.939 180.066 211.469C183.465 208.999 184.219 204.241 181.749 200.842C179.279 197.444 174.521 196.689 171.122 199.159Z" fill="black"/>
<path d="M229.552 240.836C230.85 236.84 228.663 232.548 224.668 231.25C220.673 229.95 216.38 232.138 215.081 236.134C213.784 240.13 215.97 244.423 219.967 245.72C223.961 247.019 228.254 244.832 229.552 240.836Z" fill="black"/>
<path d="M286.85 235.507C285.551 231.51 281.259 229.324 277.264 230.622C273.268 231.92 271.081 236.212 272.38 240.209C273.677 244.205 277.97 246.391 281.965 245.092C285.961 243.794 288.148 239.503 286.85 235.507Z" fill="black"/>
<path d="M331.755 208.144C334.225 204.744 333.47 199.987 330.072 197.517C326.672 195.047 321.914 195.801 319.445 199.2C316.975 202.6 317.729 207.357 321.128 209.827C324.528 212.297 329.284 211.543 331.755 208.144Z" fill="black"/>
<path d="M335.102 148.985C335.102 153.186 338.507 156.593 342.711 156.593C346.91 156.593 350.317 153.186 350.317 148.985C350.317 144.783 346.91 141.376 342.711 141.376C338.507 141.376 335.102 144.783 335.102 148.985Z" fill="black"/>
<path d="M328.878 100.841C332.278 98.3709 333.031 93.6135 330.561 90.214C328.092 86.8155 323.334 86.0613 319.934 88.5314C316.536 91.0008 315.782 95.7588 318.252 99.1582C320.722 102.556 325.479 103.311 328.878 100.841Z" fill="black"/>
<path d="M270.448 59.1633C269.151 63.16 271.337 67.4517 275.333 68.7499C279.328 70.0492 283.621 67.8618 284.919 63.8655C286.216 59.8698 284.03 55.5771 280.035 54.2788C276.04 52.9806 271.746 55.168 270.448 59.1633Z" fill="black"/>
<path d="M170.776 40.9566C174.175 38.4866 174.929 33.7292 172.459 30.3298C169.989 26.9312 165.231 26.1771 161.832 28.6471C158.434 31.1158 157.679 35.8745 160.149 39.2739C162.619 42.6718 167.376 43.4267 170.776 40.9566Z" fill="black"/>
<path d="M130.331 72.4589C133.73 74.9288 138.487 74.1737 140.958 70.7757C143.427 67.3762 142.673 62.6182 139.274 60.149C135.875 57.6791 131.117 58.4326 128.648 61.8321C126.178 65.2316 126.932 69.9881 130.331 72.4589Z" fill="black"/>
<path d="M116.928 98.7629C112.931 97.4644 108.641 99.6513 107.342 103.648C106.043 107.643 108.229 111.934 112.226 113.233C116.222 114.532 120.514 112.345 121.812 108.349C123.111 104.353 120.924 100.061 116.928 98.7629Z" fill="black"/>
<path d="M115.216 150.001C115.216 145.799 111.81 142.392 107.607 142.392C103.407 142.392 99.9999 145.799 99.9999 150.001C99.9999 154.202 103.407 157.609 107.607 157.609C111.81 157.609 115.216 154.202 115.216 150.001Z" fill="black"/>
<path d="M112.226 186.767C108.23 188.065 106.043 192.357 107.341 196.352C108.64 200.349 112.932 202.535 116.928 201.237C120.924 199.938 123.111 195.646 121.813 191.651C120.513 187.655 116.222 185.468 112.226 186.767Z" fill="black"/>
<path d="M130.33 227.542C126.931 230.012 126.178 234.769 128.648 238.169C131.117 241.567 135.875 242.321 139.275 239.851C142.672 237.382 143.427 232.624 140.957 229.224C138.487 225.826 133.73 225.072 130.33 227.542Z" fill="black"/>
<path d="M170.776 259.043C167.376 256.573 162.619 257.328 160.149 260.726C157.679 264.126 158.433 268.884 161.832 271.353C165.232 273.823 169.989 273.069 172.459 269.67C174.929 266.27 174.175 261.514 170.776 259.043Z" fill="black"/>
<path d="M208.349 278.188C204.353 276.89 200.062 279.077 198.764 283.073C197.466 287.069 199.651 291.361 203.648 292.658C207.644 293.957 211.936 291.77 213.234 287.775C214.532 283.779 212.346 279.487 208.349 278.188Z" fill="black"/>
<path d="M250 284.785C245.8 284.785 242.393 288.191 242.393 292.393C242.393 296.594 245.8 300 250 300C254.203 300 257.608 296.594 257.608 292.393C257.608 288.191 254.203 284.785 250 284.785Z" fill="black"/>
<path d="M291.651 278.189C287.654 279.487 285.468 283.779 286.766 287.775C288.065 291.771 292.356 293.957 296.353 292.659C300.349 291.36 302.536 287.068 301.236 283.073C299.938 279.077 295.647 276.89 291.651 278.189Z" fill="black"/>
<path d="M329.225 259.043C325.826 261.514 325.072 266.27 327.542 269.67C330.012 273.069 334.769 273.823 338.169 271.353C341.567 268.884 342.322 264.126 339.852 260.726C337.382 257.328 332.624 256.573 329.225 259.043Z" fill="black"/>
<path d="M369.67 227.542C366.271 225.072 361.514 225.826 359.043 229.224C356.573 232.624 357.328 237.382 360.726 239.851C364.125 242.321 368.883 241.567 371.353 238.168C373.823 234.769 373.07 230.012 369.67 227.542Z" fill="black"/>
<path d="M387.774 186.767C383.778 185.468 379.487 187.655 378.189 191.651C376.891 195.647 379.076 199.939 383.073 201.237C387.069 202.535 391.361 200.349 392.659 196.352C393.957 192.357 391.771 188.065 387.774 186.767Z" fill="black"/>
<path d="M292.352 41.5692C289.471 47.2235 291.719 54.143 297.373 57.0242C303.028 59.9043 309.947 57.6571 312.828 52.0028C315.71 46.3476 313.462 39.428 307.807 36.5479C302.152 33.6653 295.232 35.9144 292.352 41.5692Z" fill="black"/>
<path d="M266.324 46.9344C272.593 47.9285 278.478 43.6519 279.471 37.3829C280.465 31.1153 276.187 25.2289 269.92 24.2374C263.651 23.2433 257.765 27.5209 256.773 33.7878C255.779 40.0566 260.056 45.9416 266.324 46.9344Z" fill="black"/>
<path d="M233.677 46.9345C239.945 45.9417 244.221 40.0567 243.227 33.7879C242.236 27.5209 236.349 23.2434 230.081 24.2375C223.814 25.229 219.536 31.1153 220.53 37.383C221.523 43.652 227.408 47.9286 233.677 46.9345Z" fill="black"/>
<path d="M202.626 57.0237C208.281 54.1435 210.53 47.2235 207.648 41.5687C204.768 35.9139 197.848 33.6658 192.193 36.5484C186.538 39.4285 184.29 46.3481 187.171 52.0023C190.052 57.6566 196.972 59.9048 202.626 57.0237Z" fill="black"/>
<path d="M176.214 76.2133C180.701 71.726 180.702 64.4511 176.215 59.9638C171.726 55.4757 164.452 55.475 159.964 59.9638C155.475 64.4511 155.476 71.726 159.964 76.214C164.452 80.7014 171.726 80.7006 176.214 76.2133Z" fill="black"/>
<path d="M136.548 92.1927C133.668 97.8475 135.914 104.768 141.569 107.648C147.223 110.53 154.143 108.281 157.024 102.626C159.905 96.9721 157.657 90.0525 152.003 87.1714C146.349 84.2903 139.429 86.5385 136.548 92.1927Z" fill="black"/>
<path d="M133.788 143.227C140.057 144.221 145.942 139.945 146.935 133.676C147.929 127.408 143.651 121.522 137.384 120.53C131.116 119.536 125.229 123.814 124.238 130.081C123.244 136.349 127.52 142.234 133.788 143.227Z" fill="black"/>
<path d="M137.384 179.47C143.652 178.477 147.929 172.592 146.935 166.323C145.943 160.056 140.057 155.779 133.788 156.773C127.521 157.764 123.244 163.65 124.238 169.918C125.23 176.187 131.116 180.464 137.384 179.47Z" fill="black"/>
<path d="M157.024 197.374C154.143 191.719 147.224 189.471 141.569 192.352C135.915 195.233 133.667 202.153 136.548 207.807C139.429 213.462 146.349 215.711 152.003 212.829C157.658 209.948 159.905 203.028 157.024 197.374Z" fill="black"/>
<path d="M159.964 223.786C155.477 228.274 155.476 235.549 159.963 240.036C164.452 244.524 171.726 244.525 176.214 240.036C180.703 235.549 180.702 228.274 176.214 223.786C171.726 219.298 164.452 219.299 159.964 223.786Z" fill="black"/>
<path d="M207.648 258.432C210.528 252.777 208.282 245.857 202.627 242.977C196.973 240.094 190.053 242.344 187.172 247.998C184.291 253.652 186.539 260.572 192.193 263.453C197.848 266.334 204.767 264.086 207.648 258.432Z" fill="black"/>
<path d="M233.676 253.065C227.409 252.071 221.523 256.347 220.531 262.615C219.537 268.884 223.814 274.77 230.081 275.762C236.35 276.756 242.236 272.478 243.228 266.211C244.222 259.943 239.944 254.056 233.676 253.065Z" fill="black"/>
<path d="M266.323 253.065C260.056 254.056 255.779 259.943 256.773 266.211C257.764 272.478 263.651 276.756 269.918 275.762C276.186 274.77 280.464 268.884 279.47 262.615C278.477 256.347 272.592 252.071 266.323 253.065Z" fill="black"/>
<path d="M297.374 242.976C291.719 245.856 289.47 252.776 292.353 258.431C295.233 264.085 302.152 266.334 307.807 263.451C313.462 260.571 315.71 253.651 312.829 247.997C309.948 242.343 303.028 240.094 297.374 242.976Z" fill="black"/>
<path d="M323.787 223.786C319.3 228.274 319.299 235.549 323.786 240.036C328.274 244.524 335.549 244.525 340.036 240.036C344.525 235.549 344.525 228.274 340.036 223.786C335.549 219.298 328.274 219.299 323.787 223.786Z" fill="black"/>
<path d="M363.453 207.807C366.334 202.152 364.086 195.233 358.432 192.352C352.777 189.472 345.858 191.719 342.977 197.373C340.095 203.028 342.343 209.948 347.998 212.828C353.653 215.711 360.573 213.462 363.453 207.807Z" fill="black"/>
<path d="M366.211 156.772C359.944 155.779 354.057 160.056 353.066 166.323C352.072 172.592 356.349 178.478 362.616 179.47C368.885 180.464 374.771 176.186 375.763 169.919C376.757 163.65 372.48 157.765 366.211 156.772Z" fill="black"/>
<path d="M362.617 120.53C356.349 121.523 352.072 127.408 353.066 133.677C354.058 139.944 359.944 144.221 366.212 143.227C372.48 142.236 376.757 136.349 375.763 130.08C374.77 123.813 368.885 119.536 362.617 120.53Z" fill="black"/>
<path d="M342.976 102.626C345.856 108.281 352.776 110.53 358.431 107.647C364.086 104.767 366.334 97.8475 363.452 92.1922C360.571 86.5379 353.652 84.2908 347.997 87.1709C342.343 90.052 340.095 96.9716 342.976 102.626Z" fill="black"/>
<path d="M250 54.5325C242.887 54.5325 237.121 60.2993 237.121 67.4117C237.121 74.5252 242.887 80.292 250 80.292C257.114 80.292 262.879 74.5252 262.879 67.4117C262.879 60.2993 257.114 54.5325 250 54.5325Z" fill="black"/>
<path d="M193.886 72.7648C188.131 76.9461 186.856 85.0012 191.037 90.7561C195.217 96.5101 203.272 97.7859 209.027 93.6046C214.782 89.4234 216.058 81.3698 211.877 75.6149C207.695 69.86 199.641 68.5836 193.886 72.7648Z" fill="black"/>
<path d="M183.704 128.459C185.902 121.693 182.199 114.428 175.434 112.229C168.67 110.031 161.403 113.734 159.205 120.498C157.007 127.264 160.71 134.529 167.475 136.729C174.239 138.926 181.506 135.224 183.704 128.459Z" fill="black"/>
<path d="M167.475 163.272C160.709 165.469 157.007 172.735 159.205 179.5C161.404 186.266 168.669 189.968 175.435 187.769C182.2 185.572 185.902 178.306 183.703 171.541C181.506 164.775 174.241 161.073 167.475 163.272Z" fill="black"/>
<path d="M209.027 206.395C203.272 202.213 195.218 203.49 191.037 209.245C186.855 215 188.131 223.053 193.886 227.234C199.641 231.416 207.696 230.14 211.876 224.386C216.058 218.631 214.782 210.576 209.027 206.395Z" fill="black"/>
<path d="M250 245.467C257.114 245.467 262.879 239.7 262.879 232.588C262.879 225.475 257.114 219.708 250 219.708C242.887 219.708 237.121 225.475 237.121 232.588C237.121 239.7 242.887 245.467 250 245.467Z" fill="black"/>
<path d="M306.115 227.234C311.87 223.053 313.145 214.998 308.964 209.243C304.784 203.489 296.728 202.213 290.974 206.395C285.219 210.576 283.943 218.629 288.124 224.384C292.306 230.139 300.36 231.416 306.115 227.234Z" fill="black"/>
<path d="M324.566 187.769C331.332 189.968 338.598 186.266 340.795 179.5C342.993 172.735 339.292 165.469 332.526 163.271C325.761 161.073 318.495 164.775 316.297 171.54C314.099 178.306 317.8 185.572 324.566 187.769Z" fill="black"/>
<path d="M332.527 136.728C339.292 134.531 342.994 127.265 340.795 120.499C338.597 113.734 331.332 110.032 324.566 112.229C317.801 114.428 314.1 121.694 316.298 128.459C318.495 135.225 325.76 138.927 332.527 136.728Z" fill="black"/>
<path d="M290.973 93.6049C296.728 97.7861 304.782 96.5097 308.964 90.7548C313.145 84.9999 311.869 76.9463 306.114 72.7651C300.36 68.5838 292.304 69.8596 288.124 75.6136C283.943 81.3685 285.218 89.4236 290.973 93.6049Z" fill="black"/>
</svg>
